# xmcd CD database file
#
# Track frame offsets:
#	150
#	17259
#	32143
#	45876
#	54556
#	75142
#	90230
#	101330
#	118708
#	134500
#	151174
#	163136
#	177927
#	194563
#
# Disc length: 2718 seconds
#
# Revision: 0
# Processed by: cddbd v1.5.1PL0 Copyright (c) Steve Scherf et al.
# Submitted via: CDex 1.51
#
DISCID=9c0a9c0e
DTITLE=W. Bernreuther/Golly/R. Bayer - I wonder why
DYEAR=2004
DGENRE=Blues
TTITLE0=Love me now
TTITLE1=Crossroads
TTITLE2=I bid farewell, my love
TTITLE3=Sixty years
TTITLE4=Fire and rain
TTITLE5=The sky is crying
TTITLE6=Stalker blues
TTITLE7=Blues and trouble
TTITLE8=I wonder why
TTITLE9=Little red and rooster
TTITLE10=Alabama train
TTITLE11=Rock me
TTITLE12=Back home again
TTITLE13=heavens door
EXTD=YEAR: 2004
EXTT0=
EXTT1=
EXTT2=
EXTT3=
EXTT4=
EXTT5=
EXTT6=
EXTT7=
EXTT8=
EXTT9=
EXTT10=
EXTT11=
EXTT12=
EXTT13=
PLAYORDER=
